<?xml version="1.0" standalone="no"?>
<!DOCTYPE svg PUBLIC "-//W3C//DTD SVG 20010904//EN"
 "http://www.w3.org/TR/2001/REC-SVG-20010904/DTD/svg10.dtd">
<svg version="1.0" xmlns="http://www.w3.org/2000/svg"
 width="360.000000pt" height="343.000000pt" viewBox="0 0 360.000000 343.000000"
 preserveAspectRatio="xMidYMid meet">
<metadata>
Created by potrace 1.15, written by Peter Selinger 2001-2017
</metadata>
<g transform="translate(0.000000,343.000000) scale(0.100000,-0.100000)"
fill="#000000" stroke="none">
<path d="M1925 3203 c-4 -10 -9 -54 -11 -98 -2 -44 -6 -90 -9 -102 -4 -18 0
-24 20 -29 47 -12 55 -1 55 74 0 38 3 71 6 75 7 7 41 -25 67 -63 9 -13 17 -41
17 -62 0 -21 3 -38 8 -39 4 0 17 -2 29 -3 26 -3 29 7 38 147 l7 97 -31 0 c-27
0 -32 -4 -37 -29 l-6 -30 -32 30 c-17 16 -47 34 -66 39 -46 13 -47 13 -55 -7z"/>
<path d="M1714 3088 c3 -68 5 -125 5 -127 1 -5 152 9 162 14 3 3 4 16 2 29 -5
23 -8 24 -49 19 -41 -5 -44 -4 -44 19 0 20 6 24 32 26 41 3 52 14 43 41 -6 19
-12 21 -46 16 -35 -5 -39 -4 -39 15 0 17 6 20 40 20 36 0 40 3 40 25 0 24 -2
25 -76 25 l-75 0 5 -122z"/>
<path d="M1546 3175 c-22 -7 -51 -25 -65 -40 -22 -22 -26 -34 -25 -82 0 -53 3
-58 39 -90 41 -36 79 -42 145 -23 63 18 63 19 42 101 -10 41 -22 73 -28 72 -5
-1 -26 -4 -46 -7 -32 -5 -38 -10 -38 -31 0 -18 5 -25 20 -25 11 0 20 -3 20 -7
0 -5 3 -18 6 -30 6 -20 3 -23 -24 -23 -35 0 -72 39 -72 76 0 29 33 61 72 69
23 5 28 12 26 28 -4 27 -22 30 -72 12z"/>
<path d="M2191 3068 c-17 -62 -31 -116 -31 -119 0 -4 12 -9 28 -12 15 -3 49
-11 76 -16 27 -6 50 -10 51 -9 2 2 5 13 9 24 6 18 0 23 -39 34 -33 9 -44 17
-41 27 4 8 6 18 6 23 0 4 17 4 37 0 43 -10 53 -6 53 20 0 12 -12 22 -35 30
-19 6 -35 18 -35 26 0 16 13 17 57 5 27 -8 32 -6 37 12 3 12 6 25 6 28 0 3
-26 11 -57 18 -32 7 -65 14 -74 17 -13 4 -23 -17 -48 -108z"/>
<path d="M2385 3018 c-49 -107 -50 -130 -7 -136 13 -2 25 5 32 18 l12 22 15
-24 c27 -39 66 -78 79 -78 21 0 27 40 10 59 -21 23 -20 31 4 31 29 0 70 47 70
79 0 41 -27 70 -95 102 -35 16 -65 29 -68 29 -2 0 -25 -46 -52 -102z"/>
<path d="M1165 3028 c-56 -28 -75 -47 -75 -73 0 -38 31 -64 85 -72 62 -10 70
-32 21 -55 -26 -13 -33 -22 -29 -37 3 -11 11 -22 19 -25 15 -6 102 50 118 76
16 27 -4 70 -39 81 -16 6 -32 13 -35 16 -3 3 -16 6 -29 6 -36 0 -36 21 -2 41
35 21 36 24 19 46 -12 15 -16 15 -53 -4z"/>
<path d="M2649 2915 c-36 -25 -78 -58 -93 -74 l-28 -29 27 -18 c22 -14 31 -15
46 -6 28 18 69 -11 69 -47 0 -19 8 -32 25 -41 14 -7 27 -11 29 -9 9 10 55 158
61 197 6 36 4 46 -12 57 -30 23 -54 17 -124 -30z"/>
<path d="M963 2898 c-29 -23 -53 -46 -53 -53 0 -10 92 -136 131 -179 9 -10 48
13 89 51 14 13 28 23 32 23 13 0 9 27 -7 40 -11 9 -21 7 -48 -14 -31 -24 -34
-25 -50 -8 -17 16 -16 18 15 44 32 26 32 27 14 47 -18 20 -18 20 -39 0 -22
-20 -57 -26 -57 -10 0 5 14 20 31 34 28 22 30 26 18 46 -8 11 -16 21 -19 20
-3 0 -29 -19 -57 -41z"/>
<path d="M2810 2764 l-85 -85 57 -54 c32 -30 79 -80 105 -112 58 -72 63 -76
85 -56 16 14 16 17 -9 49 -21 28 -23 37 -13 49 12 14 17 12 45 -15 31 -30 32
-30 49 -11 17 19 17 21 -4 49 -34 45 -15 61 26 21 28 -27 36 -30 49 -19 8 7
15 15 15 19 0 9 -80 105 -90 109 -4 2 -44 -26 -89 -62 -44 -37 -82 -66 -85
-66 -3 0 -3 7 1 16 3 9 -5 27 -22 44 -32 34 -33 32 47 115 l48 51 -20 22 c-12
12 -22 22 -23 22 -1 0 -41 -39 -87 -86z"/>
<path d="M1470 2791 c-59 -24 -125 -83 -153 -134 -30 -58 -31 -184 0 -242 49
-93 141 -148 248 -148 107 -1 193 51 242 147 50 96 30 230 -45 309 -70 74
-204 105 -292 68z"/>
<path d="M822 2777 l-22 -21 21 -22 20 -21 -48 -12 c-48 -13 -93 -44 -93 -67
0 -6 39 -46 87 -88 l87 -77 18 23 c10 13 18 26 18 29 0 4 -25 29 -55 57 l-54
50 31 6 c58 11 90 6 121 -20 l30 -25 21 20 c27 28 20 38 -81 123 l-80 67 -21
-22z"/>
<path d="M2205 2766 c-86 -27 -146 -73 -174 -133 -7 -15 -17 -36 -22 -45 -19
-38 -10 -137 18 -195 77 -156 299 -196 419 -76 45 45 54 58 75 115 23 63 24
89 4 146 -35 101 -94 157 -194 186 -64 19 -73 19 -126 2z"/>
<path d="M631 2522 c-47 -23 -74 -75 -66 -127 10 -65 61 -105 135 -105 52 0
73 11 99 54 41 65 17 147 -52 179 -45 22 -73 21 -116 -1z"/>
<path d="M3113 2515 c-14 -10 -26 -34 -33 -70 -13 -62 -28 -69 -53 -25 -20 33
-38 38 -56 16 -10 -12 -5 -25 21 -65 41 -62 69 -77 103 -55 24 16 45 67 45
111 0 36 18 36 42 -1 26 -40 27 -41 52 -23 18 13 17 16 -10 58 -46 72 -69 83
-111 54z"/>
<path d="M1085 2442 c-22 -15 -62 -42 -88 -61 l-49 -33 89 -92 c116 -118 169
-185 157 -196 -5 -5 -44 -22 -87 -39 -203 -81 -357 -180 -357 -232 0 -18 67
-137 95 -167 10 -11 21 -6 58 31 55 53 181 120 326 172 122 45 107 53 179 -97
26 -54 51 -97 55 -98 5 0 59 -46 119 -102 l110 -103 30 35 c16 19 31 44 34 55
9 35 -44 196 -102 313 -31 62 -55 114 -53 116 6 6 208 57 247 63 43 7 41 21
-17 123 l-49 85 -49 -2 c-26 -1 -102 -18 -168 -37 l-119 -34 -40 47 c-53 61
-268 281 -275 281 -4 0 -24 -13 -46 -28z"/>
<path d="M2579 2356 c-57 -57 -124 -129 -149 -160 -25 -30 -53 -55 -63 -56
-10 0 -63 14 -119 30 -56 17 -125 33 -153 36 -49 6 -53 5 -73 -24 -12 -16 -22
-33 -22 -36 0 -3 -13 -28 -30 -56 -35 -60 -37 -70 -9 -70 29 0 252 -59 263
-70 5 -5 -21 -38 -66 -82 -82 -80 -118 -124 -118 -143 0 -11 104 -64 160 -81
69 -20 258 -29 331 -15 86 17 291 113 275 129 -3 3 4 10 16 16 39 20 133 174
116 191 -5 6 -180 57 -206 60 -47 7 -122 27 -127 35 -7 11 84 122 171 209 l75
75 -23 21 c-26 24 -130 95 -139 95 -3 0 -53 -47 -110 -104z"/>
<path d="M490 2285 c-6 -15 -9 -29 -8 -30 8 -8 202 -85 213 -85 13 0 25 21 25
44 0 12 -138 78 -192 91 -24 6 -29 3 -38 -20z"/>
<path d="M440 2169 c-21 -77 13 -138 90 -159 65 -18 116 4 146 62 22 43 18 75
-10 80 -20 4 -25 0 -30 -21 -10 -45 -22 -56 -67 -56 -55 0 -84 33 -75 86 5 28
2 38 -10 43 -28 11 -33 7 -44 -35z"/>
<path d="M3304 2165 c-3 -8 1 -42 10 -76 11 -43 12 -67 5 -80 -14 -28 -27 -23
-34 14 -4 17 -13 55 -21 84 l-15 51 -61 -14 c-34 -8 -64 -17 -66 -19 -9 -9 51
-225 62 -225 36 1 38 16 15 100 -18 69 -20 84 -8 91 8 5 17 9 20 9 4 0 17 -40
29 -90 12 -49 26 -90 32 -90 15 0 86 39 94 51 20 33 -15 209 -43 209 -7 0 -16
-7 -19 -15z"/>
<path d="M397 1994 c-13 -14 -7 -109 9 -132 32 -46 108 -65 168 -42 35 13 66
66 66 113 0 33 -3 37 -25 37 -20 0 -25 -5 -25 -25 0 -36 -33 -65 -74 -65 -51
0 -80 38 -73 95 2 20 -31 34 -46 19z"/>
<path d="M3214 1852 c-30 -23 -37 -54 -29 -118 9 -75 31 -94 108 -94 44 0 66
5 88 21 27 19 29 25 29 82 0 82 -7 102 -36 116 -39 17 -135 14 -160 -7z m146
-51 c15 -29 12 -77 -6 -95 -9 -9 -32 -16 -54 -16 -49 0 -70 21 -70 69 0 49 14
61 72 61 37 0 50 -4 58 -19z"/>
<path d="M2850 1757 c-31 -28 -63 -56 -73 -62 -15 -9 -7 -18 54 -63 39 -29 76
-55 82 -57 11 -4 134 152 126 158 -9 7 -131 77 -132 77 -1 0 -27 -24 -57 -53z"/>
<path d="M460 1735 c0 -32 -4 -45 -14 -45 -10 0 -16 13 -18 38 -3 32 -7 37
-30 40 l-28 3 0 -75 c0 -65 3 -77 20 -86 16 -9 80 -8 154 2 15 3 19 -5 22 -44
3 -34 1 -48 -8 -49 -7 0 -22 -3 -33 -5 -11 -2 -33 -6 -50 -8 -70 -8 -85 -17
-85 -47 0 -26 3 -29 34 -29 19 0 42 -3 52 -7 11 -4 15 -2 11 4 -4 6 23 14 69
21 42 5 77 12 80 14 2 2 -1 31 -6 64 -6 32 -10 103 -10 157 l0 97 -30 0 c-29
0 -30 -2 -30 -45 0 -38 -3 -45 -20 -45 -14 0 -20 7 -21 25 -1 14 -3 30 -4 35
-1 6 -3 15 -4 20 0 6 -12 10 -26 10 -23 0 -25 -4 -25 -45z"/>
<path d="M3150 1405 c-18 -68 -21 -91 -12 -110 13 -27 44 -50 84 -59 30 -7 27
-12 59 117 9 36 16 47 31 47 18 0 19 -4 13 -37 -4 -21 -13 -56 -21 -78 -20
-58 -18 -75 9 -75 20 0 25 11 51 105 28 103 28 125 1 125 -8 0 -26 5 -42 12
-59 24 -60 24 -84 -68 -13 -48 -27 -83 -33 -81 -18 6 -19 63 -2 120 12 39 12
53 3 59 -26 17 -35 5 -57 -77z"/>
<path d="M612 1432 c-19 -3 -23 -8 -18 -25 19 -65 18 -74 -3 -80 -17 -4 -23 2
-32 34 -12 39 -23 46 -48 30 -10 -6 -12 -19 -7 -44 10 -52 -12 -57 -31 -8 -16
42 -27 48 -52 32 -12 -8 -12 -19 3 -75 10 -37 22 -69 27 -72 5 -3 30 2 55 11
26 9 49 13 52 10 3 -2 10 -1 16 4 6 4 32 14 59 21 26 7 47 15 47 19 -1 14 -36
141 -41 144 -2 1 -15 1 -27 -1z"/>
<path d="M426 904 c-3 -9 -6 -104 -6 -212 1 -151 4 -201 14 -215 10 -12 16
-15 21 -7 4 6 14 9 23 5 31 -12 2777 -7 2821 5 23 6 49 10 59 8 16 -3 17 13
17 211 0 166 -3 215 -13 217 -7 1 -8 0 -2 -3 6 -3 10 -79 10 -209 l0 -204
-1127 0 c-621 -1 -1279 -1 -1463 -1 l-335 0 -3 205 -2 205 57 4 58 3 -61 2
c-48 2 -63 -1 -68 -14z"/>
<path d="M1262 913 c269 -2 707 -2 976 0 268 1 48 2 -488 2 -536 0 -756 -1
-488 -2z"/>
<path d="M467 883 c-4 -3 -7 -86 -7 -184 l0 -178 1443 2 1442 2 3 176 c2 176
2 177 -20 182 -33 8 -2853 8 -2861 0z m341 -95 l3 -68 -36 0 c-43 0 -49 27 -7
33 25 4 25 4 -5 6 -29 1 -33 -2 -33 -24 0 -18 5 -25 20 -25 11 0 20 -4 20 -10
0 -5 9 -10 19 -10 10 0 21 -6 24 -12 7 -20 -11 -58 -28 -58 -12 0 -14 -4 -5
-19 26 -49 19 -52 -112 -49 -129 3 -132 4 -113 50 4 11 0 18 -14 23 -22 7 -31
55 -10 55 7 0 8 7 4 18 -9 22 -17 133 -10 150 3 9 38 12 142 10 l138 -3 3 -67z
m1172 -28 c0 -11 5 -20 11 -20 6 0 8 9 4 20 -4 14 -2 20 8 20 16 0 30 -27 21
-41 -8 -13 6 -50 17 -44 5 4 9 24 9 46 0 28 4 39 15 39 8 0 16 -10 16 -22 l2
-23 4 23 c2 12 11 22 19 22 8 0 14 -10 14 -22 0 -19 -2 -20 -10 -8 -7 11 -10
7 -10 -18 0 -22 4 -31 11 -26 6 3 15 0 20 -7 6 -9 9 3 9 34 0 54 19 64 40 20
l13 -28 11 28 c5 15 17 27 25 27 12 0 16 -11 16 -50 0 -41 -3 -50 -17 -50 -14
0 -16 6 -12 33 l5 32 -19 -34 -19 -35 -17 30 -17 29 6 -27 5 -28 -76 0 c-61 0
-80 4 -90 18 -13 16 -14 16 -8 0 5 -14 1 -18 -15 -18 -19 0 -21 6 -21 50 0 38
4 50 15 50 8 0 15 -9 15 -20z m870 2 c1 -16 1 -16 11 1 12 20 59 23 77 5 19
-19 14 -65 -9 -81 -31 -22 -60 -9 -77 35 -20 50 -36 49 -29 -3 5 -37 3 -40
-16 -37 -19 3 -22 9 -19 39 3 34 2 36 -21 32 -14 -3 -28 0 -31 6 -12 19 -36
-1 -36 -30 0 -24 4 -29 25 -29 14 0 25 -4 25 -10 0 -14 -54 -12 -68 2 -15 15
-16 60 -1 75 6 6 46 11 90 11 68 1 79 -1 79 -16z m185 -21 c0 -49 21 -49 46 1
l22 43 18 -42 c23 -54 39 -55 39 -3 0 29 4 40 15 40 11 0 15 -12 15 -45 0 -43
1 -45 21 -35 23 13 35 8 24 -9 -3 -6 -33 -11 -65 -11 -46 0 -61 4 -69 18 -9
16 -10 16 -16 0 -6 -14 -19 -17 -66 -17 l-59 1 0 50 0 49 38 -3 c35 -3 37 -5
37 -37z"/>
<path d="M540 820 c0 -11 3 -11 65 -14 l40 -1 0 -100 0 -100 -26 -1 c-36 -1
-56 -14 -38 -24 20 -10 180 0 173 11 -3 5 -18 9 -34 9 -25 0 -29 4 -34 38 -9
53 -4 152 9 160 11 7 17 8 63 10 17 1 32 7 32 12 0 6 -48 10 -125 10 -77 0
-125 -4 -125 -10z"/>
<path d="M649 448 c-6 -11 -7 -58 -3 -80 7 -35 44 -40 44 -6 l0 22 16 -22 c16
-23 67 -31 79 -12 3 6 15 10 26 10 10 0 19 -4 19 -10 0 -5 7 -10 15 -10 19 0
19 2 -6 61 -12 27 -27 49 -34 49 -7 0 -20 -20 -29 -45 -10 -25 -22 -45 -26
-45 -16 0 -21 19 -11 37 16 30 -5 53 -49 53 -22 0 -41 -1 -41 -2z"/>
</g>
</svg>
